<?xml version="1.0" encoding="UTF-8" standalone="no"?>
<svg
   xmlns:dc="http://purl.org/dc/elements/1.1/"
   xmlns:cc="http://creativecommons.org/ns#"
   xmlns:rdf="http://www.w3.org/1999/02/22-rdf-syntax-ns#"
   xmlns:svg="http://www.w3.org/2000/svg"
   xmlns="http://www.w3.org/2000/svg"
   xmlns:sodipodi="http://sodipodi.sourceforge.net/DTD/sodipodi-0.dtd"
   xmlns:inkscape="http://www.inkscape.org/namespaces/inkscape"
   width="24pt"
   height="24pt"
   viewBox="0 0 8.4666669 8.4666666"
   version="1.1"
   id="svg8"
   inkscape:version="1.0.1 (3bc2e813f5, 2020-09-07)"
   sodipodi:docname="logo.svg"
   inkscape:export-filename="C:\Users\Jatlivecom\projects\ArtSpatter-workspace\artspatter\public\assets\logo32.png"
   inkscape:export-xdpi="97.025772"
   inkscape:export-ydpi="97.025772">
  <defs
     id="defs2" />
  <sodipodi:namedview
     id="base"
     pagecolor="#ffffff"
     bordercolor="#666666"
     borderopacity="1.0"
     inkscape:pageopacity="0.0"
     inkscape:pageshadow="2"
     inkscape:zoom="11.2"
     inkscape:cx="1.6517887"
     inkscape:cy="15.28642"
     inkscape:document-units="mm"
     inkscape:current-layer="layer1"
     inkscape:document-rotation="0"
     showgrid="false"
     units="pt"
     inkscape:window-width="1346"
     inkscape:window-height="860"
     inkscape:window-x="30"
     inkscape:window-y="25"
     inkscape:window-maximized="0" />
  <metadata
     id="metadata5">
    <rdf:RDF>
      <cc:Work
         rdf:about="">
        <dc:format>image/svg+xml</dc:format>
        <dc:type
           rdf:resource="http://purl.org/dc/dcmitype/StillImage" />
        <dc:title />
      </cc:Work>
    </rdf:RDF>
  </metadata>
  <g
     inkscape:label="Layer 1"
     inkscape:groupmode="layer"
     id="layer1">
    <path
       id="path20"
       style="fill:#0000ff;stroke-width:0.540775"
       d="M 3.9907588,1.1745204 C 2.0461346,1.2487948 0.50791499,2.8467163 0.50771111,4.7927547 0.50791499,6.738793 2.0461346,8.3367149 3.9907588,8.4109888 L 6.1925917,7.6299621 6.5672461,3.9034824 Z"
       sodipodi:nodetypes="cccccc" />
    <circle
       style="fill:#00ff00;stroke-width:0.751076"
       id="path16"
       cx="3.7665617"
       cy="4.1964674"
       r="3.621259" />
    <circle
       style="fill:#ffff00;stroke-width:0.628806"
       id="path18"
       cx="3.9718678"
       cy="3.6581318"
       r="3.621259" />
    <circle
       style="fill:#ff0000;fill-rule:evenodd;stroke-width:0.827715"
       id="path14"
       cx="4.7859936"
       cy="4.1156044"
       r="3.621259" />
    <path
       id="circle54"
       style="fill:#0000ff;stroke-width:0.540775"
       d="m 4.1289702,1.1715024 c -0.046085,1.264e-4 -0.092165,0.00113 -0.1382115,0.00302 L 3.3448841,1.2149624 6.0824806,4.4737948 5.0091934,7.6941224 3.9907587,8.4109888 c 0.046047,0.0019 0.092126,0.00291 0.1382115,0.00304 1.999966,0 3.6212588,-1.6212896 3.6212591,-3.6212517 1e-7,-1.9999624 -1.6212929,-3.6212522 -3.6212591,-3.6212522 z"
       sodipodi:nodetypes="cccccccscc" />
    <circle
       style="fill:#cccccc;stroke-width:0.477153"
       id="path22"
       cx="4.2877626"
       cy="4.1727862"
       r="3.621259" />
    <path
       style="fill:#ffffff;stroke-width:0.477153"
       d="m 7.9090219,4.1727863 c 0,0.8645164 -0.3029443,1.6582764 -0.8084659,2.2809133 C 6.4366073,7.2714663 5.4416463,1.42731 4.3061966,1.42731 3.1527575,1.42731 2.1068375,7.2547763 1.443676,6.4146095 0.95697141,5.7979979 0.66650371,5.0193133 0.66650371,4.1727863 c 0,-1.9999661 1.62129299,-3.62125908 3.62125909,-3.62125908 1.9999661,0 3.6212591,1.62129298 3.6212591,3.62125908 z"
       id="circle39"
       sodipodi:nodetypes="sssssss" />
    <circle
       style="fill:#800080;stroke-width:0.175577"
       id="path21"
       cx="6.5693145"
       cy="4.9878564"
       r="1.2070863" />
    <circle
       style="fill:#00aad4;stroke-width:0.146009"
       id="path23"
       cx="4.2452917"
       cy="6.8556318"
       r="0.96470362" />
    <circle
       style="fill:#ff6600;stroke-width:0.250798"
       id="path25"
       cx="4.2998781"
       cy="2.4269376"
       r="1.7578288" />
    <circle
       style="fill:#abc837;stroke-width:0.319375"
       id="path27"
       cx="2.0259006"
       cy="4.9213953"
       r="1.2546873" />
    <path
       style="fill:#ffffff;stroke-width:0.183362"
       d="m 4.0191276,4.7480478 c 0,0 0.126884,0.047352 0.2559423,0.046338 0.122812,-9.652e-4 0.2398495,-0.042773 0.2398495,-0.042773 0,0 -0.00451,0.1692398 -0.00356,0.2981038 9.064e-4,0.1230064 0.1140624,0.3509594 0.1140624,0.3509594 0,0 -0.2271369,-0.091601 -0.3467831,-0.092675 -0.1282925,-0.00115 -0.3735691,0.092675 -0.3735691,0.092675 0,0 0.1195221,-0.2223209 0.1211914,-0.3438306 0.00181,-0.131836 -0.00713,-0.3087971 -0.00713,-0.3087971 z"
       id="rect34"
       sodipodi:nodetypes="cscscscsc" />
  </g>
</svg>
